<svg width="100" height="50" viewBox="0 0 1000 1000" xmlns="http://www.w3.org/2000/svg"><defs/><g opacity="0.56" transform="matrix(0.5026732627603653 0 0 0.5026732627603653 5.221930741016164 21.880537744550395)"><path fill="#0f3877" d="M 379.7162522748 930.95355774031 C 356.6162522748 957.45355774031 336.8162522748 986.85355774031 321.0162522748 1018.65355774031 C 361.5162522748 1103.35355774031 436.4162522748 1168.55355774031 527.5162522748 1196.15355774031 C 528.3162522748 1195.95355774031 529.1162522748 1195.65355774031 529.9162522748 1195.35355774031 C 564.1162522748 1156.15355774031 590.7162522748 1110.15355774031 607.5162522748 1059.75355774031 C 518.4162522748 1041.35355774031 439.3162522748 995.25355774031 379.7162522748 930.95355774031 Z"/></g><path fill="#0f3877" transform="matrix(0.5026732627603653 0 0 0.5026732627603653 5.221930741016164 21.880537744550395)" d="M 758.4162522748 797.25355774031 C 758.4162522748 797.25355774031 758.3162522748 797.15355774031 758.3162522748 797.15355774031 C 704.9162522748 747.25355774031 635.4162522748 714.55355774031 558.5162522748 707.55355774031 C 577.8162522748 735.75355774031 593.6162522748 766.65355774031 605.2162522748 799.35355774031 C 620.0162522748 841.15355774031 628.1162522748 886.05355774031 628.1162522748 932.95355774031 C 628.1162522748 977.25355774031 620.9162522748 1019.85355774031 607.6162522748 1059.65355774031 C 590.8162522748 1110.05355774031 564.1162522748 1156.05355774031 530.0162522748 1195.25355774031 C 601.3162522748 1173.05355774031 662.4162522748 1127.85355774031 704.7162522748 1068.35355774031 C 744.0162522748 1013.15355774031 767.1162522748 945.75355774031 767.1162522748 872.95355774031 C 767.0162522748 846.95355774031 763.9162522748 821.65355774031 758.4162522748 797.25355774031 Z"/><path fill="#0f3877" transform="matrix(0.5026732627603653 0 0 0.5026732627603653 5.221930741016164 21.880537744550395)" d="M 558.5162522748 707.55355774031 C 548.3162522748 706.65355774031 538.1162522748 706.15355774031 527.8162522748 706.15355774031 C 438.2162522748 706.15355774031 356.9162522748 741.05355774031 296.5162522748 797.95355774031 C 296.4162522748 798.45355774031 296.3162522748 799.05355774031 296.2162522748 799.55355774031 C 290.9162522748 823.25355774031 288.0162522748 847.85355774031 288.0162522748 873.05355774031 C 288.0162522748 925.25355774031 299.8162522748 974.55355774031 321.0162522748 1018.65355774031 C 336.8162522748 986.85355774031 356.6162522748 957.35355774031 379.7162522748 930.95355774031 C 437.4162522748 864.95355774031 516.0162522748 817.65355774031 605.2162522748 799.35355774031 C 593.5162522748 766.65355774031 577.8162522748 735.85355774031 558.5162522748 707.55355774031 Z"/><path id="text" fill="#0f3877" transform="matrix(1.3945358740414946 0 0 1.3945358740414946 280.8121201506495 107.89173951658671)" d="M 112.08015675109 294.90911405282 L 112.08015675109 243.95598905282 L 103.26765675109 240.86223905282 L 104.06453175109 237.01848905282 L 125.34578175109 237.01848905282 C 129.06453175109 237.01848905282 132.17390675109 237.09661405282 134.67390675109 237.25286405282 C 137.17390675109 237.40911405282 139.66609425109 237.80755155282 142.15046925109 238.44817655282 C 144.63484425109 239.08880155282 146.84578175109 240.08098905282 148.78328175109 241.42473905282 C 150.93953175109 242.92473905282 152.63484425109 244.93255155282 153.86921925109 247.44817655282 C 155.10359425109 249.96380155282 155.72078175109 252.87786405282 155.72078175109 256.19036405282 C 155.72078175109 259.15911405282 155.09578175109 261.83880155282 153.84578175109 264.22942655282 C 152.59578175109 266.62005155282 150.84578175109 268.61223905282 148.59578175109 270.20598905282 C 146.22078175109 271.89348905282 143.35359425109 273.12005155282 139.99421925109 273.88567655282 C 136.63484425109 274.65130155282 133.33015675109 275.03411405282 130.08015675109 275.03411405282 L 130.64265675109 271.94036405282 C 133.95515675109 270.37786405282 136.47859425109 268.94817655282 138.21296925109 267.65130155282 C 139.94734425109 266.35442655282 141.22078175109 264.79973905282 142.03328175109 262.98723905282 C 142.84578175109 261.17473905282 143.25203175109 258.79973905282 143.25203175109 255.86223905282 C 143.25203175109 250.64348905282 141.49421925109 246.84661405282 137.97859425109 244.47161405282 C 134.46296925109 242.09661405282 129.89265675109 240.87786405282 124.26765675109 240.81536405282 L 124.26765675109 294.95598905282 L 135.56453175109 298.04973905282 L 134.81453175109 301.89348905282 L 102.89265675109 301.89348905282 L 103.73640675109 297.90911405282 L 112.08015675109 294.90911405282 Z M 165.15465675109 261.81536405282 L 165.57653175109 259.51848905282 L 180.24840675109 256.89348905282 L 182.82653175109 265.51848905282 C 184.76403175109 262.17473905282 186.65465675109 259.80755155282 188.49840675109 258.41692655282 C 190.34215675109 257.02630155282 192.38903175109 256.33098905282 194.63903175109 256.33098905282 C 195.42028175109 256.33098905282 196.27965675109 256.47942655282 197.21715675109 256.77630155282 C 198.15465675109 257.07317655282 199.04528175109 257.47161405282 199.88903175109 257.97161405282 C 200.85778175109 258.56536405282 201.64684425109 259.24505155282 202.25621925109 260.01067655282 C 202.86559425109 260.77630155282 203.17028175109 261.56536405282 203.17028175109 262.37786405282 C 203.17028175109 263.28411405282 202.75621925109 264.35442655282 201.92809425109 265.58880155282 C 201.09996925109 266.82317655282 200.11559425109 267.88567655282 198.97496925109 268.77630155282 C 197.83434425109 269.66692655282 196.84215675109 270.11223905282 195.99840675109 270.11223905282 C 195.40465675109 270.11223905282 194.71715675109 269.94817655282 193.93590675109 269.62005155282 C 193.15465675109 269.29192655282 192.51403175109 268.92473905282 192.01403175109 268.51848905282 L 191.07653175109 263.59661405282 C 189.95153175109 264.00286405282 188.63903175109 264.69817655282 187.13903175109 265.68255155282 C 185.63903175109 266.66692655282 184.40465675109 267.59661405282 183.43590675109 268.47161405282 L 183.43590675109 295.75286405282 L 195.81090675109 298.42473905282 L 195.06090675109 301.89348905282 L 164.73278175109 301.89348905282 L 165.48278175109 298.04973905282 L 172.09215675109 295.28411405282 L 172.09215675109 265.65911405282 L 165.15465675109 261.81536405282 Z M 214.10415675109 268.82317655282 C 215.97915675109 265.02630155282 218.60415675109 261.97161405282 221.97915675109 259.65911405282 C 225.35415675109 257.34661405282 229.16665675109 256.19036405282 233.41665675109 256.19036405282 C 237.54165675109 256.19036405282 241.24478175109 256.99505155282 244.52603175109 258.60442655282 C 247.80728175109 260.21380155282 250.41665675109 262.67473905282 252.35415675109 265.98723905282 C 254.29165675109 269.29973905282 255.26040675109 273.42473905282 255.26040675109 278.36223905282 C 255.26040675109 282.64348905282 254.30728175109 286.68255155282 252.40103175109 290.47942655282 C 250.49478175109 294.27630155282 247.86978175109 297.32317655282 244.52603175109 299.62005155282 C 241.18228175109 301.91692655282 237.47915675109 303.06536405282 233.41665675109 303.06536405282 C 229.19790675109 303.06536405282 225.42446925109 302.26848905282 222.09634425109 300.67473905282 C 218.76821925109 299.08098905282 216.13540675109 296.63567655282 214.19790675109 293.33880155282 C 212.26040675109 290.04192655282 211.29165675109 285.90911405282 211.29165675109 280.94036405282 C 211.29165675109 276.65911405282 212.22915675109 272.62005155282 214.10415675109 268.82317655282 Z M 239.60415675109 296.10442655282 C 240.63540675109 295.77630155282 241.44790675109 295.28411405282 242.04165675109 294.62786405282 C 242.69790675109 293.81536405282 243.21353175109 292.37005155282 243.58853175109 290.29192655282 C 243.96353175109 288.21380155282 244.15103175109 286.19036405282 244.15103175109 284.22161405282 C 244.15103175109 279.87786405282 243.54165675109 276.07317655282 242.32290675109 272.80755155282 C 241.10415675109 269.54192655282 239.42446925109 267.03411405282 237.28384425109 265.28411405282 C 235.14321925109 263.53411405282 232.72915675109 262.65911405282 230.04165675109 262.65911405282 C 227.47915675109 262.65911405282 225.61978175109 263.29973905282 224.46353175109 264.58098905282 C 223.86978175109 265.36223905282 223.37759425109 266.79192655282 222.98696925109 268.87005155282 C 222.59634425109 270.94817655282 222.40103175109 273.03411405282 222.40103175109 275.12786405282 C 222.40103175109 279.00286405282 222.92446925109 282.56536405282 223.97134425109 285.81536405282 C 225.01821925109 289.06536405282 226.58853175109 291.67473905282 228.68228175109 293.64348905282 C 230.77603175109 295.61223905282 233.29165675109 296.59661405282 236.22915675109 296.59661405282 C 237.44790675109 296.59661405282 238.57290675109 296.43255155282 239.60415675109 296.10442655282 Z M 307.56146925109 298.37786405282 C 309.70209425109 299.94036405282 310.77240675109 302.33098905282 310.77240675109 305.54973905282 C 310.77240675109 309.01848905282 309.68646925109 312.26067655282 307.51459425109 315.27630155282 C 305.34271925109 318.29192655282 302.13959425109 320.72161405282 297.90521925109 322.56536405282 C 293.67084425109 324.40911405282 288.63178175109 325.33098905282 282.78803175109 325.33098905282 C 279.85053175109 325.33098905282 276.87396925109 324.99505155282 273.85834425109 324.32317655282 C 270.84271925109 323.65130155282 268.50678175109 322.72161405282 266.85053175109 321.53411405282 C 264.72553175109 319.84661405282 263.66303175109 317.61223905282 263.66303175109 314.83098905282 C 263.66303175109 312.64348905282 264.48334425109 310.63567655282 266.12396925109 308.80755155282 C 267.76459425109 306.97942655282 269.88178175109 305.26848905282 272.47553175109 303.67473905282 C 270.60053175109 303.01848905282 269.13178175109 302.02630155282 268.06928175109 300.69817655282 C 267.00678175109 299.37005155282 266.47553175109 297.86223905282 266.47553175109 296.17473905282 C 266.47553175109 293.98723905282 267.40521925109 292.12005155282 269.26459425109 290.57317655282 C 271.12396925109 289.02630155282 273.27240675109 287.84661405282 275.70990675109 287.03411405282 C 273.20990675109 285.87786405282 271.24896925109 284.25286405282 269.82709425109 282.15911405282 C 268.40521925109 280.06536405282 267.69428175109 277.50286405282 267.69428175109 274.47161405282 C 267.69428175109 271.03411405282 268.42865675109 267.94036405282 269.89740675109 265.19036405282 C 271.36615675109 262.44036405282 273.63959425109 260.25286405282 276.71771925109 258.62786405282 C 279.79584425109 257.00286405282 283.66303175109 256.19036405282 288.31928175109 256.19036405282 C 290.28803175109 256.19036405282 292.20209425109 256.43255155282 294.06146925109 256.91692655282 C 295.92084425109 257.40130155282 297.60053175109 258.11223905282 299.10053175109 259.04973905282 C 301.13178175109 258.04973905282 303.31928175109 257.29192655282 305.66303175109 256.77630155282 C 308.00678175109 256.26067655282 310.11615675109 256.00286405282 311.99115675109 256.00286405282 L 312.88178175109 257.92473905282 L 304.77240675109 265.42473905282 C 305.55365675109 267.23723905282 305.94428175109 269.17473905282 305.94428175109 271.23723905282 C 305.94428175109 274.76848905282 305.12396925109 277.88567655282 303.48334425109 280.58880155282 C 301.84271925109 283.29192655282 299.51459425109 285.37786405282 296.49896925109 286.84661405282 C 293.48334425109 288.31536405282 289.99115675109 289.04973905282 286.02240675109 289.04973905282 C 283.61615675109 289.04973905282 281.22553175109 288.75286405282 278.85053175109 288.15911405282 C 277.25678175109 290.75286405282 276.45990675109 292.54973905282 276.45990675109 293.54973905282 C 276.45990675109 293.92473905282 276.59271925109 294.26848905282 276.85834425109 294.58098905282 C 277.12396925109 294.89348905282 277.45990675109 295.12786405282 277.86615675109 295.28411405282 C 278.74115675109 295.59661405282 280.41303175109 295.79973905282 282.88178175109 295.89348905282 C 285.35053175109 295.98723905282 290.13178175109 296.03411405282 297.22553175109 296.03411405282 C 301.97553175109 296.03411405282 305.42084425109 296.81536405282 307.56146925109 298.37786405282 Z M 278.59271925109 265.82317655282 C 278.29584425109 266.96380155282 278.14740675109 268.17473905282 278.14740675109 269.45598905282 C 278.14740675109 271.83098905282 278.62396925109 274.08880155282 279.57709425109 276.22942655282 C 280.53021925109 278.37005155282 281.88178175109 280.09661405282 283.63178175109 281.40911405282 C 285.38178175109 282.72161405282 287.39740675109 283.37786405282 289.67865675109 283.37786405282 C 291.67865675109 283.37786405282 293.13178175109 282.92473905282 294.03803175109 282.01848905282 C 294.56928175109 281.48723905282 294.97553175109 280.47161405282 295.25678175109 278.97161405282 C 295.53803175109 277.47161405282 295.67865675109 275.73723905282 295.67865675109 273.76848905282 C 295.67865675109 271.45598905282 295.26459425109 269.38567655282 294.43646925109 267.55755155282 C 293.60834425109 265.72942655282 292.36615675109 264.27630155282 290.70990675109 263.19817655282 C 289.05365675109 262.12005155282 287.02240675109 261.58098905282 284.61615675109 261.58098905282 C 283.58490675109 261.58098905282 282.60053175109 261.69817655282 281.66303175109 261.93255155282 C 280.72553175109 262.16692655282 280.10053175109 262.51848905282 279.78803175109 262.98723905282 C 279.28803175109 263.73723905282 278.88959425109 264.68255155282 278.59271925109 265.82317655282 Z M 300.38959425109 313.79973905282 C 300.93646925109 312.51848905282 301.20990675109 311.11223905282 301.20990675109 309.58098905282 C 301.20990675109 308.58098905282 301.10834425109 307.78411405282 300.90521925109 307.19036405282 C 300.70209425109 306.59661405282 300.24896925109 306.11223905282 299.54584425109 305.73723905282 C 298.84271925109 305.36223905282 297.77240675109 305.17473905282 296.33490675109 305.17473905282 C 290.92865675109 305.17473905282 286.66303175109 305.13567655282 283.53803175109 305.05755155282 C 280.41303175109 304.97942655282 277.80365675109 304.78411405282 275.70990675109 304.47161405282 C 274.99115675109 305.84661405282 274.34271925109 307.30755155282 273.76459425109 308.85442655282 C 273.18646925109 310.40130155282 272.89740675109 311.70598905282 272.89740675109 312.76848905282 C 272.89740675109 313.48723905282 273.03803175109 314.03411405282 273.31928175109 314.40911405282 C 274.13178175109 315.56536405282 275.90521925109 316.54192655282 278.63959425109 317.33880155282 C 281.37396925109 318.13567655282 284.42865675109 318.53411405282 287.80365675109 318.53411405282 C 289.99115675109 318.53411405282 292.10053175109 318.37786405282 294.13178175109 318.06536405282 C 296.16303175109 317.75286405282 297.69428175109 317.20598905282 298.72553175109 316.42473905282 C 299.28803175109 315.95598905282 299.84271925109 315.08098905282 300.38959425109 313.79973905282 Z M 357.87034425109 279.41692655282 C 357.51096925109 279.68255155282 356.98753175109 279.81536405282 356.30003175109 279.81536405282 L 331.45628175109 279.81536405282 C 331.73753175109 282.56536405282 332.47971925109 285.15911405282 333.68284425109 287.59661405282 C 334.88596925109 290.03411405282 336.44065675109 291.99505155282 338.34690675109 293.47942655282 C 340.25315675109 294.96380155282 342.34690675109 295.70598905282 344.62815675109 295.70598905282 C 346.56565675109 295.70598905282 348.93284425109 295.37786405282 351.72971925109 294.72161405282 C 354.52659425109 294.06536405282 356.48753175109 293.51848905282 357.61253175109 293.08098905282 L 358.55003175109 294.67473905282 C 357.39378175109 296.11223905282 355.88596925109 297.47161405282 354.02659425109 298.75286405282 C 352.16721925109 300.03411405282 350.09690675109 301.07317655282 347.81565675109 301.87005155282 C 345.53440675109 302.66692655282 343.25315675109 303.06536405282 340.97190675109 303.06536405282 C 337.28440675109 303.06536405282 333.88596925109 302.27630155282 330.77659425109 300.69817655282 C 327.66721925109 299.12005155282 325.15940675109 296.63567655282 323.25315675109 293.24505155282 C 321.34690675109 289.85442655282 320.39378175109 285.59661405282 320.39378175109 280.47161405282 C 320.39378175109 276.06536405282 321.33909425109 272.01067655282 323.22971925109 268.30755155282 C 325.12034425109 264.60442655282 327.80003175109 261.65911405282 331.26878175109 259.47161405282 C 334.73753175109 257.28411405282 338.72190675109 256.19036405282 343.22190675109 256.19036405282 C 346.62815675109 256.19036405282 349.58128175109 256.87786405282 352.08128175109 258.25286405282 C 354.58128175109 259.62786405282 356.50315675109 261.49505155282 357.84690675109 263.85442655282 C 359.19065675109 266.21380155282 359.86253175109 268.84661405282 359.86253175109 271.75286405282 C 359.86253175109 274.09661405282 359.48753175109 276.23723905282 358.73753175109 278.17473905282 C 358.51878175109 278.73723905282 358.22971925109 279.15130155282 357.87034425109 279.41692655282 Z M 349.87815675109 274.19036405282 C 349.75315675109 271.62786405282 349.17503175109 269.44817655282 348.14378175109 267.65130155282 C 347.11253175109 265.85442655282 345.75315675109 264.49505155282 344.06565675109 263.57317655282 C 342.37815675109 262.65130155282 340.53440675109 262.19036405282 338.53440675109 262.19036405282 C 336.59690675109 262.19036405282 335.30003175109 262.54973905282 334.64378175109 263.26848905282 C 333.83128175109 264.26848905282 333.10471925109 265.87005155282 332.46409425109 268.07317655282 C 331.82346925109 270.27630155282 331.45628175109 272.94036405282 331.36253175109 276.06536405282 L 349.87815675109 274.19036405282 Z M 370.14015675109 261.81536405282 L 370.56203175109 259.51848905282 L 385.23390675109 256.89348905282 L 387.81203175109 265.51848905282 C 389.74953175109 262.17473905282 391.64015675109 259.80755155282 393.48390675109 258.41692655282 C 395.32765675109 257.02630155282 397.37453175109 256.33098905282 399.62453175109 256.33098905282 C 400.40578175109 256.33098905282 401.26515675109 256.47942655282 402.20265675109 256.77630155282 C 403.14015675109 257.07317655282 404.03078175109 257.47161405282 404.87453175109 257.97161405282 C 405.84328175109 258.56536405282 406.63234425109 259.24505155282 407.24171925109 260.01067655282 C 407.85109425109 260.77630155282 408.15578175109 261.56536405282 408.15578175109 262.37786405282 C 408.15578175109 263.28411405282 407.74171925109 264.35442655282 406.91359425109 265.58880155282 C 406.08546925109 266.82317655282 405.10109425109 267.88567655282 403.96046925109 268.77630155282 C 402.81984425109 269.66692655282 401.82765675109 270.11223905282 400.98390675109 270.11223905282 C 400.39015675109 270.11223905282 399.70265675109 269.94817655282 398.92140675109 269.62005155282 C 398.14015675109 269.29192655282 397.49953175109 268.92473905282 396.99953175109 268.51848905282 L 396.06203175109 263.59661405282 C 394.93703175109 264.00286405282 393.62453175109 264.69817655282 392.12453175109 265.68255155282 C 390.62453175109 266.66692655282 389.39015675109 267.59661405282 388.42140675109 268.47161405282 L 388.42140675109 295.75286405282 L 400.79640675109 298.42473905282 L 400.04640675109 301.89348905282 L 369.71828175109 301.89348905282 L 370.46828175109 298.04973905282 L 377.07765675109 295.28411405282 L 377.07765675109 265.65911405282 L 370.14015675109 261.81536405282 Z"/></svg>